<mxfile host="app.diagrams.net" agent="Mozilla/5.0 (Windows NT 10.0; Win64; x64) AppleWebKit/537.36 (KHTML, like Gecko) Chrome/134.0.0.0 Safari/537.36" version="26.1.0">
  <diagram name="Page-1" id="pTjLHCtSQOHoZnVIhe2K">
    <mxGraphModel dx="600" dy="1398" grid="1" gridSize="10" guides="1" tooltips="1" connect="1" arrows="1" fold="1" page="1" pageScale="1" pageWidth="850" pageHeight="1100" math="0" shadow="0">
      <root>
        <mxCell id="0" />
        <mxCell id="1" parent="0" />
        <mxCell id="ABAeP9qsCJxkxnTzY5sX-1" value="Dealer" style="shape=umlActor;verticalLabelPosition=bottom;verticalAlign=top;html=1;outlineConnect=0;" vertex="1" parent="1">
          <mxGeometry x="30" y="40" width="30" height="60" as="geometry" />
        </mxCell>
        <mxCell id="ABAeP9qsCJxkxnTzY5sX-5" value="Player" style="shape=umlActor;verticalLabelPosition=bottom;verticalAlign=top;html=1;outlineConnect=0;" vertex="1" parent="1">
          <mxGeometry x="30" y="180" width="30" height="60" as="geometry" />
        </mxCell>
        <mxCell id="ABAeP9qsCJxkxnTzY5sX-7" value="Hit" style="ellipse;whiteSpace=wrap;html=1;" vertex="1" parent="1">
          <mxGeometry x="320" y="40" width="60" height="40" as="geometry" />
        </mxCell>
        <mxCell id="ABAeP9qsCJxkxnTzY5sX-11" value="Stand" style="ellipse;whiteSpace=wrap;html=1;" vertex="1" parent="1">
          <mxGeometry x="320" y="90" width="60" height="40" as="geometry" />
        </mxCell>
        <mxCell id="ABAeP9qsCJxkxnTzY5sX-45" style="edgeStyle=orthogonalEdgeStyle;rounded=0;orthogonalLoop=1;jettySize=auto;html=1;entryX=1;entryY=0.5;entryDx=0;entryDy=0;exitX=1;exitY=0.5;exitDx=0;exitDy=0;" edge="1" parent="1" source="ABAeP9qsCJxkxnTzY5sX-15" target="ABAeP9qsCJxkxnTzY5sX-7">
          <mxGeometry relative="1" as="geometry">
            <Array as="points">
              <mxPoint x="420" y="210" />
              <mxPoint x="420" y="60" />
            </Array>
          </mxGeometry>
        </mxCell>
        <mxCell id="ABAeP9qsCJxkxnTzY5sX-15" value="Split" style="ellipse;whiteSpace=wrap;html=1;" vertex="1" parent="1">
          <mxGeometry x="320" y="190" width="60" height="40" as="geometry" />
        </mxCell>
        <mxCell id="ABAeP9qsCJxkxnTzY5sX-50" style="edgeStyle=orthogonalEdgeStyle;rounded=0;orthogonalLoop=1;jettySize=auto;html=1;exitX=1;exitY=0;exitDx=0;exitDy=0;entryX=1;entryY=1;entryDx=0;entryDy=0;" edge="1" parent="1" source="ABAeP9qsCJxkxnTzY5sX-16" target="ABAeP9qsCJxkxnTzY5sX-11">
          <mxGeometry relative="1" as="geometry" />
        </mxCell>
        <mxCell id="ABAeP9qsCJxkxnTzY5sX-16" value="Double down" style="ellipse;whiteSpace=wrap;html=1;" vertex="1" parent="1">
          <mxGeometry x="320" y="140" width="60" height="40" as="geometry" />
        </mxCell>
        <mxCell id="ABAeP9qsCJxkxnTzY5sX-36" value="" style="endArrow=classic;html=1;rounded=0;entryX=0;entryY=0.5;entryDx=0;entryDy=0;" edge="1" parent="1" source="ABAeP9qsCJxkxnTzY5sX-5" target="ABAeP9qsCJxkxnTzY5sX-16">
          <mxGeometry width="50" height="50" relative="1" as="geometry">
            <mxPoint x="270" y="210" as="sourcePoint" />
            <mxPoint x="300" y="160" as="targetPoint" />
          </mxGeometry>
        </mxCell>
        <mxCell id="ABAeP9qsCJxkxnTzY5sX-51" value="2 x bet" style="edgeLabel;html=1;align=center;verticalAlign=middle;resizable=0;points=[];" vertex="1" connectable="0" parent="ABAeP9qsCJxkxnTzY5sX-36">
          <mxGeometry x="0.4386" y="2" relative="1" as="geometry">
            <mxPoint as="offset" />
          </mxGeometry>
        </mxCell>
        <mxCell id="ABAeP9qsCJxkxnTzY5sX-37" value="" style="endArrow=classic;html=1;rounded=0;entryX=0.05;entryY=0.316;entryDx=0;entryDy=0;entryPerimeter=0;" edge="1" parent="1" source="ABAeP9qsCJxkxnTzY5sX-5" target="ABAeP9qsCJxkxnTzY5sX-15">
          <mxGeometry width="50" height="50" relative="1" as="geometry">
            <mxPoint x="40" y="267" as="sourcePoint" />
            <mxPoint x="310" y="200" as="targetPoint" />
          </mxGeometry>
        </mxCell>
        <mxCell id="ABAeP9qsCJxkxnTzY5sX-52" value="2 x hit &amp;amp; 2 x bet" style="edgeLabel;html=1;align=center;verticalAlign=middle;resizable=0;points=[];" vertex="1" connectable="0" parent="ABAeP9qsCJxkxnTzY5sX-37">
          <mxGeometry x="0.6191" relative="1" as="geometry">
            <mxPoint x="-23" as="offset" />
          </mxGeometry>
        </mxCell>
        <mxCell id="ABAeP9qsCJxkxnTzY5sX-39" value="" style="endArrow=classic;html=1;rounded=0;exitX=1;exitY=0.3333333333333333;exitDx=0;exitDy=0;exitPerimeter=0;" edge="1" parent="1" source="ABAeP9qsCJxkxnTzY5sX-5" target="ABAeP9qsCJxkxnTzY5sX-11">
          <mxGeometry width="50" height="50" relative="1" as="geometry">
            <mxPoint x="60" y="190" as="sourcePoint" />
            <mxPoint x="320" y="190" as="targetPoint" />
          </mxGeometry>
        </mxCell>
        <mxCell id="ABAeP9qsCJxkxnTzY5sX-40" value="" style="endArrow=classic;html=1;rounded=0;exitX=0.75;exitY=0.1;exitDx=0;exitDy=0;exitPerimeter=0;entryX=0.072;entryY=0.784;entryDx=0;entryDy=0;entryPerimeter=0;" edge="1" parent="1" source="ABAeP9qsCJxkxnTzY5sX-5" target="ABAeP9qsCJxkxnTzY5sX-7">
          <mxGeometry width="50" height="50" relative="1" as="geometry">
            <mxPoint x="60" y="172" as="sourcePoint" />
            <mxPoint x="323" y="90" as="targetPoint" />
          </mxGeometry>
        </mxCell>
        <mxCell id="ABAeP9qsCJxkxnTzY5sX-41" value="" style="endArrow=classic;html=1;rounded=0;entryX=0;entryY=0.5;entryDx=0;entryDy=0;" edge="1" parent="1" source="ABAeP9qsCJxkxnTzY5sX-1" target="ABAeP9qsCJxkxnTzY5sX-7">
          <mxGeometry width="50" height="50" relative="1" as="geometry">
            <mxPoint x="20" y="145" as="sourcePoint" />
            <mxPoint x="291" y="30" as="targetPoint" />
          </mxGeometry>
        </mxCell>
        <mxCell id="ABAeP9qsCJxkxnTzY5sX-42" value="" style="endArrow=classic;html=1;rounded=0;entryX=0.042;entryY=0.403;entryDx=0;entryDy=0;entryPerimeter=0;" edge="1" parent="1" source="ABAeP9qsCJxkxnTzY5sX-1" target="ABAeP9qsCJxkxnTzY5sX-11">
          <mxGeometry width="50" height="50" relative="1" as="geometry">
            <mxPoint x="60" y="90" as="sourcePoint" />
            <mxPoint x="320" y="81" as="targetPoint" />
          </mxGeometry>
        </mxCell>
        <mxCell id="ABAeP9qsCJxkxnTzY5sX-48" style="edgeStyle=orthogonalEdgeStyle;rounded=0;orthogonalLoop=1;jettySize=auto;html=1;entryX=0.971;entryY=0.613;entryDx=0;entryDy=0;entryPerimeter=0;exitX=1;exitY=0.5;exitDx=0;exitDy=0;" edge="1" parent="1" source="ABAeP9qsCJxkxnTzY5sX-16" target="ABAeP9qsCJxkxnTzY5sX-7">
          <mxGeometry relative="1" as="geometry">
            <Array as="points">
              <mxPoint x="400" y="160" />
              <mxPoint x="400" y="65" />
            </Array>
          </mxGeometry>
        </mxCell>
        <mxCell id="ABAeP9qsCJxkxnTzY5sX-53" value="Shoe" style="ellipse;whiteSpace=wrap;html=1;" vertex="1" parent="1">
          <mxGeometry x="230" y="-30" width="60" height="40" as="geometry" />
        </mxCell>
        <mxCell id="ABAeP9qsCJxkxnTzY5sX-54" value="Shuffle" style="ellipse;whiteSpace=wrap;html=1;" vertex="1" parent="1">
          <mxGeometry x="110" y="20" width="60" height="40" as="geometry" />
        </mxCell>
        <mxCell id="ABAeP9qsCJxkxnTzY5sX-56" value="" style="endArrow=classic;html=1;rounded=0;" edge="1" parent="1">
          <mxGeometry width="50" height="50" relative="1" as="geometry">
            <mxPoint x="270" y="140" as="sourcePoint" />
            <mxPoint x="320" y="90" as="targetPoint" />
          </mxGeometry>
        </mxCell>
        <mxCell id="ABAeP9qsCJxkxnTzY5sX-57" value="" style="endArrow=classic;html=1;rounded=0;entryX=0.09;entryY=0.73;entryDx=0;entryDy=0;entryPerimeter=0;" edge="1" parent="1" source="ABAeP9qsCJxkxnTzY5sX-1" target="ABAeP9qsCJxkxnTzY5sX-54">
          <mxGeometry width="50" height="50" relative="1" as="geometry">
            <mxPoint x="70" y="80" as="sourcePoint" />
            <mxPoint x="120" y="30" as="targetPoint" />
          </mxGeometry>
        </mxCell>
        <mxCell id="ABAeP9qsCJxkxnTzY5sX-58" value="" style="endArrow=classic;html=1;rounded=0;entryX=0.071;entryY=0.646;entryDx=0;entryDy=0;entryPerimeter=0;exitX=0.974;exitY=0.387;exitDx=0;exitDy=0;exitPerimeter=0;" edge="1" parent="1" source="ABAeP9qsCJxkxnTzY5sX-54" target="ABAeP9qsCJxkxnTzY5sX-53">
          <mxGeometry width="50" height="50" relative="1" as="geometry">
            <mxPoint x="160" y="32" as="sourcePoint" />
            <mxPoint x="215" as="targetPoint" />
          </mxGeometry>
        </mxCell>
        <mxCell id="ABAeP9qsCJxkxnTzY5sX-59" value="Deal card" style="ellipse;whiteSpace=wrap;html=1;" vertex="1" parent="1">
          <mxGeometry x="80" y="-30" width="60" height="40" as="geometry" />
        </mxCell>
        <mxCell id="ABAeP9qsCJxkxnTzY5sX-60" value="" style="endArrow=classic;html=1;rounded=0;entryX=1;entryY=0.5;entryDx=0;entryDy=0;exitX=0.071;exitY=0.394;exitDx=0;exitDy=0;exitPerimeter=0;" edge="1" parent="1" source="ABAeP9qsCJxkxnTzY5sX-53" target="ABAeP9qsCJxkxnTzY5sX-59">
          <mxGeometry width="50" height="50" relative="1" as="geometry">
            <mxPoint x="178" y="45" as="sourcePoint" />
            <mxPoint x="244" y="6" as="targetPoint" />
          </mxGeometry>
        </mxCell>
        <mxCell id="ABAeP9qsCJxkxnTzY5sX-64" value="" style="endArrow=classic;html=1;rounded=0;entryX=0;entryY=1;entryDx=0;entryDy=0;exitX=0.75;exitY=0.1;exitDx=0;exitDy=0;exitPerimeter=0;" edge="1" parent="1" source="ABAeP9qsCJxkxnTzY5sX-1" target="ABAeP9qsCJxkxnTzY5sX-59">
          <mxGeometry width="50" height="50" relative="1" as="geometry">
            <mxPoint x="50" y="40" as="sourcePoint" />
            <mxPoint x="105" y="23" as="targetPoint" />
          </mxGeometry>
        </mxCell>
      </root>
    </mxGraphModel>
  </diagram>
</mxfile>
